<svg width="37" height="41" viewBox="0 0 37 41" fill="none" xmlns="http://www.w3.org/2000/svg">
<path d="M1.39999 10.5C3.69999 9.19999 5.99999 7.79999 8.29999 6.49999C11.4 4.69999 14.4 2.99999 17.5 1.19999C17.7 1.09999 17.9 0.899988 18.1 0.799988H18.4C19.8 1.59999 21.2 2.49999 22.7 3.29999C26.6 5.59999 30.5 7.79999 34.5 10.1C34.7 10.2 34.9 10.3 35.1 10.4C34.8 10.7 34.5 11 34.1 11.2C28.8 14.3 23.6 17.3 18.3 20.3C15.4 18.6 12.5 16.9 9.59999 15.2C6.79999 13.7 4.09999 12.1 1.39999 10.5Z" fill="#00F6FF"/>
<path d="M0.399997 11.5C3.1 13.1 5.8 14.7 8.5 16.2L17.2 21.3V24.1V40.9C11.8 37.8 6.4 34.7 0.999997 31.6C0.399997 31.3 0.199997 30.9 0.199997 30.2C0.199997 24.3 0.199997 18.3 0.199997 12.4C0.199997 12.1 0.299997 11.8 0.399997 11.5Z" fill="#00F6FF"/>
<path d="M19.2 40.9C19.2 35.3 19.2 29.7 19.2 24.1C19.2 23.2 19.2 22.3 19.2 21.3C24.5 18.3 29.7 15.2 35 12.2C35.4 12 35.6 11.7 36 11.4C36.1 11.7 36.2 12.1 36.2 12.4V30.1C36.2 30.7 36.1 31.1 35.5 31.4C34.6 31.9 33.7 32.3 32.8 32.8C32.1 33.2 31.4 33.6 30.7 34C29.1 34.9 27.5 35.8 26 36.7C25.2 37.2 24.5 37.7 23.7 38.2C22.2 39.1 20.7 40 19.2 40.9Z" fill="#00F6FF"/>
</svg>
