<svg width="60" height="62" viewBox="0 0 60 62" fill="none" xmlns="http://www.w3.org/2000/svg">
<path fill-rule="evenodd" clip-rule="evenodd" d="M27.9024 0.151421C26.7283 0.306314 24.8767 0.891825 23.4865 1.54827L22.1236 2.19149V3.26511V4.33873H20.8202H19.5171L18.621 5.46637C17.4293 6.96605 16.5601 8.72237 15.9903 10.782C15.5759 12.279 15.538 12.811 15.6601 15.4025C15.736 17.0132 15.8607 19.0772 15.9375 19.9892L16.0771 21.6472L15.0846 22.0839C14.0277 22.549 13.5135 23.1502 13.1785 24.3123C13.0184 24.867 13.1002 25.6052 13.5359 27.5386C13.8467 28.9176 14.2291 30.2898 14.3857 30.5881C14.8275 31.4295 15.8852 32.3294 16.8006 32.6424C17.5649 32.9038 17.6546 33.0216 17.9007 34.0896C18.5266 36.8028 20.0049 39.1028 23.1457 42.2503C26.034 45.1445 27.4573 45.8875 30.0831 45.8714C31.9536 45.8599 33.2873 45.4217 34.6904 44.357C35.0788 44.0622 35.4523 43.8212 35.5201 43.8212C35.5882 43.8212 35.646 44.4314 35.6486 45.177C35.6562 47.3173 36.8902 49.4132 38.676 50.3182C39.4759 50.7237 51.2238 53.8044 51.9347 53.7951C52.156 53.7922 52.8462 53.1301 53.5253 52.2691C57.1816 47.6325 59.2698 42.4601 59.8699 36.5538C60.6654 28.7217 57.7643 19.9931 52.4735 14.3015L51.3795 13.1247L50.5055 13.967L49.6315 14.8092L51.0655 16.5618C52.8981 18.8017 53.8007 20.2133 54.9687 22.666C58.34 29.7463 58.234 38.5216 54.6908 45.6651C53.6712 47.7208 51.8649 50.4861 51.3176 50.8297C51.0956 50.969 49.2876 50.6015 45.5658 49.6609C38.3506 47.8373 38.0425 47.5807 38.0425 43.3945V41.2184L39.2342 39.7538C40.655 38.0077 41.6192 36.1924 42.1348 34.2935C42.4653 33.0761 42.5951 32.875 43.1671 32.6932C44.1676 32.375 45.1988 31.5174 45.6483 30.6297C46.0997 29.7383 46.9833 25.9573 46.9833 24.9169C46.9833 24.0407 46.2261 22.7226 45.4664 22.2761C45.1343 22.0811 44.3095 21.8568 43.6333 21.7776L42.4039 21.634V22.9653V24.2969H43.2829C43.8998 24.2969 44.2033 24.4041 44.3006 24.6559C44.3767 24.8533 44.2552 25.9454 44.0304 27.0824C43.5027 29.7522 43.1333 30.2125 41.3944 30.3668L40.1213 30.4796L39.8488 32.3843C39.6837 33.5364 39.3461 34.7561 38.9944 35.4704C37.8131 37.8704 33.9867 41.969 31.9744 42.9897C30.9433 43.5125 29.2514 43.4945 28.0398 42.9476C26.9333 42.4482 24.0485 39.7363 22.6263 37.8587C20.9284 35.6169 20.4497 34.4163 20.0522 31.4016L19.9161 30.3711H18.7599C17.0719 30.3711 16.6584 29.8763 16.0385 27.1138C15.4335 24.4192 15.4955 24.2969 17.4618 24.2969C18.6424 24.2969 18.852 24.2396 18.8489 23.9173C18.8469 23.7086 18.6574 21.357 18.428 18.6915C17.8938 12.4871 18.1284 10.8397 19.9473 8.01993L20.6425 6.94197H22.5728H24.5032L24.5673 5.36961L24.6314 3.79726L25.9398 3.26034C27.1616 2.759 27.5513 2.71821 31.8276 2.64424L36.407 2.56527L35.9164 3.08636C35.6464 3.37293 35.4257 3.6697 35.4257 3.74563C35.4257 3.82177 35.8516 4.17559 36.3721 4.5318C39.3919 6.59856 41.2067 9.68144 41.6539 13.5043L41.7998 14.7517H39.316H36.8322L35.2076 13.1247L33.583 11.4976H27.8533H22.1236V12.6908V13.8839H27.1987H32.274L34.0083 15.6194L35.7426 17.3549H39.9456H44.1484V14.8016C44.1484 10.6689 43.0059 7.529 40.4993 4.77369L39.2846 3.43845L41.0028 1.71922L42.7207 0L35.6388 0.0325392C31.7434 0.050328 28.2622 0.103912 27.9024 0.151421ZM7.81776 13.9293C5.74809 16.1754 4.01424 18.7624 2.74094 21.5045C-1.03642 29.6381 -0.903614 38.9828 3.10271 46.9668C4.72121 50.192 7.3777 53.8022 8.1296 53.7985C8.33022 53.7974 11.2804 53.0664 14.6856 52.1739C21.0656 50.5015 21.7455 50.2247 22.8868 48.8355C23.3797 48.2356 23.849 47.4733 23.8605 47.254C23.8647 47.1733 23.0096 47.3421 21.9601 47.6293C17.1661 48.9409 9.25134 50.9801 8.95433 50.9801C8.52932 50.9801 6.91976 48.7305 5.66283 46.3799C4.49835 44.2023 3.56458 41.606 3.02596 39.0486C2.54534 36.7664 2.48275 31.6309 2.90711 29.2864C3.77131 24.5123 6.17659 19.5416 9.22015 16.2399C9.84055 15.5669 10.348 14.9278 10.348 14.8196C10.348 14.7113 9.97161 14.2573 9.51171 13.8106L8.67564 12.9982L7.81776 13.9293ZM23.1208 23.0682C21.5597 24.6214 23.7044 27.0036 25.4199 25.6217C25.8042 25.3122 25.93 24.992 25.93 24.3229C25.93 23.2597 25.5399 22.8098 24.4687 22.6369C23.8169 22.5315 23.586 22.6054 23.1208 23.0682ZM34.4346 23.094C33.7156 23.8092 33.7261 24.7952 34.4603 25.5256C34.9255 25.9883 35.1564 26.0623 35.8082 25.9569C36.8793 25.784 37.2695 25.3341 37.2695 24.2709C37.2695 23.6018 37.1436 23.2816 36.7594 22.9721C36.0474 22.3985 35.0827 22.449 34.4346 23.094ZM27.4008 30.8484C26.8768 31.3697 27.1021 32.0396 27.9334 32.432C29.484 33.1642 31.4013 33.0455 32.4273 32.1541C33.3706 31.3343 32.4456 30.3151 31.2953 30.9069C30.4941 31.3189 29.3837 31.3217 28.6656 30.9135C27.9901 30.5293 27.7349 30.516 27.4008 30.8484ZM26.0488 35.9151C26.0488 36.5779 27.9499 37.2003 29.974 37.2003C31.9981 37.2003 33.8992 36.5779 33.8992 35.9151C33.8992 35.6223 33.3807 35.5776 29.974 35.5776C26.5674 35.5776 26.0488 35.6223 26.0488 35.9151ZM30.6867 50.1666C30.5694 50.3158 29.8567 52.91 29.1031 55.9317C27.8738 60.8596 27.767 61.4596 28.0657 61.7571C28.5924 62.281 29.2771 61.9252 29.5226 61.0004C29.6393 60.56 30.2368 58.1986 30.85 55.7527C31.4632 53.3067 32.011 51.145 32.0673 50.9486C32.1804 50.5534 31.6289 49.8954 31.1845 49.8954C31.0279 49.8954 30.8038 50.0175 30.6867 50.1666ZM23.3215 54.0187L21.3665 55.9727L23.3788 57.9746L25.3911 59.9767L25.9869 59.3838L26.5827 58.7911L25.1772 57.3804L23.7718 55.9696L25.1713 54.5647L26.5709 53.1599L26.0538 52.6123C25.7695 52.3112 25.4781 52.0648 25.4066 52.0648C25.3351 52.0648 24.3967 52.944 23.3215 54.0187ZM33.7294 52.5472L33.2444 53.0295L34.7109 54.4997L36.1772 55.9696L34.7054 57.445L33.2337 58.9206L33.744 59.3974C34.0248 59.6599 34.3482 59.8745 34.4629 59.8745C34.5776 59.8745 35.5507 58.9959 36.6251 57.9221L38.5785 55.9696L36.6251 54.0172C35.5507 52.9434 34.5687 52.0648 34.4429 52.0648C34.3171 52.0648 33.9961 52.2819 33.7294 52.5472Z" fill="#00F6FF"/>
</svg>
