<svg width="50" height="45" viewBox="0 0 50 45" fill="none" xmlns="http://www.w3.org/2000/svg">
<path d="M0.2 20.95C0.4 20.05 0.5 19.15 0.8 18.25C2.5 12.65 8 8.75 13.8 8.95C20 9.25 25.1 13.45 26.3 19.45C26.6 20.75 26.5 22.05 26.7 23.35C27.2 27.75 30.7 31.45 35 32.15C40.7 33.15 45.9 29.55 46.9 23.85C47.9 18.55 44.3 13.15 38.9 12.05C38 11.95 37.1 11.95 36.2 11.85C34.1 11.65 32.4 10.25 32 8.15C31.8 7.35 31.9 6.55 31.9 5.75C31.9 5.45 31.9 5.15 31.9 4.65C31.3 5.15 30.8 5.55 30.2 5.95C29.6 5.15 29 4.45 28.4 3.65C28.6 3.45 28.8 3.35 29.1 3.15C30.4 2.15 31.7 1.15 33 0.15C33.3 -0.05 33.4 -0.05 33.7 0.15C35.2 1.35 36.7 2.45 38.3 3.65C37.7 4.45 37.1 5.15 36.6 5.95C36 5.55 35.5 5.15 34.9 4.65C34.9 5.65 34.8 6.55 34.9 7.45C35 8.25 35.7 8.75 36.6 8.85C37.6 8.95 38.6 8.95 39.5 9.15C45 10.25 49.2 15.05 49.8 20.65C50.5 27.85 45.4 34.25 38.2 35.05C31.3 35.85 24.8 30.95 23.8 24.05C23.6 22.95 23.7 21.85 23.5 20.75C22.9 15.85 19 12.15 14.1 11.75C8.9 11.55 4.2 15.15 3.3 20.25C2.3 25.65 5.9 31.05 11.3 32.15C12 32.35 12.8 32.35 13.6 32.35C15.9 32.55 17.7 33.95 18.1 36.05C18.3 37.05 18.2 37.95 18.2 38.95V39.55C18.8 39.15 19.3 38.75 19.9 38.25C20.5 39.05 21.1 39.75 21.7 40.55C21.3 40.85 20.9 41.15 20.4 41.55C19.3 42.35 18.2 43.25 17.1 44.05C16.8 44.25 16.7 44.25 16.4 44.05C15 42.95 13.6 41.95 12.1 40.85C12 40.75 11.9 40.65 11.7 40.55C12.3 39.75 12.8 39.05 13.4 38.25C14 38.65 14.5 39.05 15.1 39.45H15.2C15.1 38.45 15.2 37.45 15 36.45C14.9 35.65 14.1 35.25 13.2 35.15C12.3 35.05 11.3 35.05 10.4 34.85C4.8 33.65 0.7 29.15 0.1 23.45C0.1 23.35 0 23.25 0 23.05C0.2 22.45 0.2 21.75 0.2 20.95Z" fill="#00F6FF"/>
<path d="M20.7 23.65C20 23.65 19.4 23.65 18.8 23.65C18.6 24.05 18.5 24.45 18.3 24.75C18.3 24.85 18.3 25.05 18.4 25.15C18.8 25.55 19.2 25.95 19.6 26.25C18.9 26.95 18.2 27.65 17.5 28.35C17.1 27.95 16.6 27.45 16.2 26.95C15.9 27.05 15.8 27.25 15.6 27.25C14.9 27.35 14.8 27.85 14.8 28.45V29.45C13.8 29.45 12.9 29.45 11.9 29.45C11.9 28.95 11.9 28.35 11.9 27.85C11.9 27.65 11.7 27.45 11.6 27.45C11.3 27.25 11 27.15 10.6 27.05C10.2 27.55 9.8 27.95 9.4 28.45C8.6 27.65 7.9 26.95 7.2 26.25C7.5 25.95 7.8 25.65 8.2 25.35C8.5 25.15 8.4 24.95 8.4 24.65C8.2 23.75 7.6 23.55 6.9 23.75C6.6 23.75 6.4 23.75 6.1 23.75C6.1 22.75 6.1 21.85 6.1 20.85H8C8.2 20.45 8.4 20.05 8.5 19.65C8.5 19.55 8.5 19.35 8.4 19.25C8 18.85 7.6 18.45 7.3 18.15C7.9 17.35 8.5 16.65 9.2 15.95C9.6 16.35 10 16.85 10.4 17.25C10.8 17.05 11.2 16.95 11.6 16.75C11.7 16.65 11.8 16.55 11.8 16.35C11.8 15.85 11.8 15.25 11.8 14.75H14.7V16.15C14.7 16.55 14.8 16.75 15.1 16.85C15.4 16.95 15.7 17.05 16.1 17.25C16.5 16.85 16.9 16.35 17.4 15.85L19.5 17.95C19.2 18.25 18.8 18.65 18.3 18.95C18.1 19.15 18.1 19.25 18.2 19.45C18.4 19.75 18.5 20.15 18.6 20.45H20.5C20.7 21.65 20.7 22.65 20.7 23.65ZM16 22.15C16 20.65 14.8 19.45 13.3 19.45C11.8 19.45 10.6 20.65 10.6 22.15C10.6 23.65 11.8 24.85 13.3 24.85C14.8 24.85 16 23.65 16 22.15Z" fill="#00F6FF"/>
<path d="M39.6 17.25C40 16.75 40.4 16.35 41 15.75C41.4 16.15 41.7 16.55 42 16.85C42.3 17.15 42.7 17.45 43.1 17.95C42.7 18.35 42.3 18.75 41.9 19.05C41.7 19.25 41.7 19.35 41.8 19.55C42 19.85 42.1 20.25 42.2 20.55H44.1V23.45C43.4 23.45 42.8 23.45 42.2 23.45C42.1 23.65 42.1 23.95 42 24.05C41.6 24.65 41.8 25.05 42.3 25.45C42.6 25.65 42.8 25.95 43 26.15C42.3 26.85 41.6 27.55 40.9 28.25C40.5 27.85 40.2 27.55 39.8 27.15C39.6 26.95 39.5 26.95 39.3 27.05C39.2 27.05 39.2 27.15 39.1 27.15C38.3 27.25 38.1 27.85 38.2 28.55V29.45C37.2 29.45 36.3 29.45 35.3 29.45C35.3 28.95 35.3 28.45 35.3 27.95C35.3 27.65 35.2 27.55 34.9 27.35C34.1 26.85 33.6 27.05 33.1 27.75C33 27.95 32.8 28.15 32.6 28.35C31.9 27.65 31.2 26.95 30.5 26.25C30.8 25.95 31.3 25.55 31.6 25.15C31.7 25.05 31.7 24.85 31.7 24.65C31.6 24.25 31.4 23.95 31.3 23.55C30.7 23.55 30 23.55 29.4 23.55C29.4 22.55 29.4 21.65 29.4 20.65H31.3C31.5 20.25 31.7 19.85 31.8 19.45C31.8 19.35 31.8 19.15 31.7 19.05C31.3 18.65 30.9 18.35 30.6 17.95C31.3 17.25 32 16.55 32.7 15.85C33.1 16.25 33.5 16.75 33.9 17.15C34.4 16.95 34.8 16.85 35.1 16.65C35.2 16.55 35.3 16.35 35.3 16.25C35.3 15.75 35.3 15.15 35.3 14.65H38.2V16.25C38.2 16.45 38.4 16.65 38.5 16.65C38.8 16.95 39.2 17.15 39.6 17.25ZM39.4 22.15C39.4 20.65 38.2 19.45 36.8 19.45C35.3 19.45 34.1 20.65 34.1 22.15C34.1 23.65 35.3 24.85 36.7 24.85C38.2 24.85 39.4 23.65 39.4 22.15Z" fill="#00F6FF"/>
</svg>
