<svg width="35" height="32" viewBox="0 0 35 32" fill="none" xmlns="http://www.w3.org/2000/svg">
<g clip-path="url(#clip0_11_2)">
<path fill-rule="evenodd" clip-rule="evenodd" d="M25.4 0H9.5C4 0 0 4.5 0 10.3V21.3C0 27.1 4 31.6 9.5 31.6H25.4C28.1 31.6 30.6 30.5 32.4 28.5C34.2 26.5 35.1 23.9 35 21.3V10.3C35.3 4.9 31.2 0.4 25.8 0.0999999C25.7 -9.68575e-08 25.5 0 25.4 0V0ZM9.5 2.7H25.3C27.2 2.7 29.1 3.5 30.4 5C31.7 6.4 32.4 8.3 32.3 10.2V21.3C32.4 23.3 31.8 25.2 30.4 26.6C29.1 28 27.3 28.8 25.3 28.9H9.5C5.5 28.9 2.6 25.7 2.6 21.3V10.3C2.7 5.9 5.5 2.7 9.5 2.7V2.7ZM28 9.9C27.5 9.3 26.7 9.2 26.1 9.7L19 15.4L18.8 15.5C17.9 16 16.8 16 16 15.3L8.8 9.5L8.6 9.4C8 9.1 7.3 9.2 6.9 9.7C6.4 10.3 6.5 11.1 7.1 11.6L14.3 17.4L14.6 17.6C16.4 18.8 18.8 18.8 20.6 17.4L27.8 11.6L27.9 11.5C28.4 11.1 28.5 10.4 28 9.9V9.9Z" fill="white"/>
</g>
<defs>
<clipPath id="clip0_11_2">
<rect width="35" height="31.5" fill="white"/>
</clipPath>
</defs>
</svg>
