<svg width="17" height="18" viewBox="0 0 17 18" fill="none" xmlns="http://www.w3.org/2000/svg">
<path d="M15.641 13.6177L8.44867 17.6683V14.5134L12.9299 12.0592L15.6409 13.6176L15.641 13.6177ZM16.133 13.1741V4.70295L13.501 6.21534V11.6601L16.133 13.1741ZM0.624985 13.6177L7.81733 17.6683V14.5134L3.33609 12.0592L0.625058 13.6176L0.624985 13.6177ZM0.133 13.1741V4.70295L2.76489 6.21534V11.6601L0.133 13.1741ZM0.440941 4.15486L7.81733 -0.0001V3.05016L3.09168 5.63803L3.05568 5.65865L0.440941 4.15486ZM15.8251 4.15486L8.44867 -0.0001V3.05016L13.1743 5.63811L13.2103 5.65872L15.8251 4.15494L15.8251 4.15486ZM7.8174 13.7958L3.39624 11.3758V6.58019L7.81725 9.12183V13.7958H7.8174ZM8.44867 13.7958L12.8696 11.3758V6.58019L8.44867 9.12183V13.7958ZM3.69564 6.02519L8.13381 3.59471L12.5721 6.02519L8.13388 8.57713L3.69564 6.02519Z" fill="#E1EBEF"/>
</svg>
